<?xml version="1.0" standalone="no"?>
<!DOCTYPE svg PUBLIC "-//W3C//DTD SVG 20010904//EN"
 "http://www.w3.org/TR/2001/REC-SVG-20010904/DTD/svg10.dtd">
<svg version="1.0" xmlns="http://www.w3.org/2000/svg"
 width="1280.000000pt" height="910.000000pt" viewBox="0 0 1280.000000 910.000000"
 preserveAspectRatio="xMidYMid meet">
<metadata>
Created by potrace 1.15, written by Peter Selinger 2001-2017
</metadata>
<g transform="translate(0.000000,910.000000) scale(0.100000,-0.100000)"
fill="#000000" stroke="none">
<path d="M7184 6486 c-152 -48 -294 -180 -366 -342 -10 -24 -22 -44 -26 -44
-4 0 -81 11 -170 24 -90 14 -249 33 -353 42 -186 18 -189 18 -189 41 0 23 -1
23 -135 23 -118 0 -135 -2 -135 -16 0 -15 -9 -16 -72 -11 -40 4 -264 12 -498
18 -571 16 -1142 6 -1632 -27 -95 -6 -98 -6 -98 15 0 20 -4 21 -135 21 l-135
0 0 -33 0 -32 -212 -23 c-363 -39 -823 -109 -1168 -176 l-125 -24 95 -1 c52
-1 257 4 455 10 198 5 494 13 658 17 l297 7 0 -57 0 -58 -1025 0 -1025 0 -1
-32 c-1 -18 -1 -38 0 -44 1 -7 -5 -14 -13 -17 -18 -7 -51 -115 -67 -216 -10
-68 -8 -112 7 -168 5 -18 -3 -25 -58 -52 -70 -33 -162 -107 -152 -122 3 -5
-23 -78 -59 -162 -82 -194 -158 -397 -192 -512 -32 -110 -172 -764 -217 -1010
-30 -167 -32 -195 -31 -387 0 -171 -2 -208 -13 -208 -12 0 -14 -40 -14 -220
l0 -220 28 0 28 0 21 -352 c12 -193 20 -355 17 -360 -3 -4 -28 -8 -56 -8 -98
0 -166 -62 -176 -160 -7 -73 5 -117 45 -160 46 -52 79 -60 248 -60 135 0 146
-2 275 -40 128 -38 151 -41 435 -65 165 -14 338 -25 385 -25 l85 0 0 -163 c0
-127 4 -177 19 -231 73 -271 257 -501 495 -620 419 -210 922 -94 1201 275 145
193 211 428 189 671 -5 50 -8 93 -6 94 8 8 1453 23 2312 24 915 2 1802 17
2684 46 l144 5 -7 -23 c-37 -138 -33 -362 8 -502 128 -430 529 -717 966 -693
432 24 777 307 887 727 33 125 35 323 5 442 l-19 78 76 0 c42 0 364 5 716 11
352 6 738 11 858 10 l218 -2 29 31 c70 75 64 259 -12 330 -18 16 -35 20 -98
20 l-76 0 3 293 c2 160 6 334 9 385 6 89 7 92 30 92 l24 0 0 165 0 165 -30 0
c-30 0 -30 1 -30 55 0 30 5 55 10 55 6 0 10 45 10 115 0 108 -1 115 -20 115
-14 0 -20 7 -20 23 0 44 -138 288 -342 606 l-93 145 -98 28 c-54 15 -117 38
-140 49 -101 51 -96 43 -328 513 l-217 441 69 3 c38 2 69 5 69 8 0 2 -34 55
-75 117 -81 120 -243 298 -388 426 -79 70 -96 80 -182 109 -133 46 -204 50
-1000 62 -978 14 -1262 14 -1268 -4 -13 -34 -17 -112 -10 -233 6 -104 5 -133
-4 -133 -10 0 -13 44 -13 185 0 149 -3 186 -14 192 -8 4 -16 26 -18 48 l-3 40
-1075 5 -1075 5 -3 58 c-3 54 -2 57 20 57 13 0 221 -9 463 -20 457 -21 1114
-37 1105 -27 -3 3 -134 35 -290 72 -337 78 -323 74 -316 88 2 7 31 75 64 152
32 77 71 163 85 192 37 72 38 70 -29 49z m-1436 -493 l62 -6 0 -63 0 -64
-1147 2 -1148 3 -3 56 -3 57 193 7 c615 21 1865 26 2046 8z m2392 -1085 c0
-35 -4 -69 -8 -76 -7 -10 -293 -12 -1398 -10 l-1389 3 -3 49 c-2 27 -1 60 3
73 l5 23 1395 0 1395 0 0 -62z m-3552 -50 l-3 -73 -1216 -3 -1217 -2 -6 22
c-8 31 -8 113 1 121 3 4 555 7 1225 7 l1219 0 -3 -72z m5312 -368 l0 -350
-545 0 -545 0 0 103 c0 56 -3 213 -7 350 l-6 247 551 0 552 0 0 -350z m394 12
c60 -185 111 -343 114 -349 3 -10 -43 -13 -212 -13 l-216 0 0 350 0 350 103 0
102 0 109 -338z m-2170 222 c23 -9 22 -111 -1 -136 -15 -17 -72 -18 -1388 -18
-1053 0 -1374 3 -1383 12 -7 7 -12 38 -12 70 0 44 4 59 18 67 19 11 2738 16
2766 5z m-3539 -109 l0 -70 -1214 -3 c-965 -2 -1216 0 -1223 10 -9 16 -11 122
-1 131 3 4 554 6 1222 5 l1216 -3 0 -70z m3550 -200 l0 -70 -1397 -3 -1398 -2
0 63 c0 36 5 68 12 75 9 9 328 11 1398 10 l1385 -3 0 -70z m-3550 -40 l0 -70
-1214 -3 c-965 -2 -1216 0 -1223 10 -9 16 -11 122 -1 131 3 4 554 6 1222 5
l1216 -3 0 -70z m3539 -131 c20 -8 23 -123 4 -142 -9 -9 -332 -12 -1394 -12
-1251 0 -1382 1 -1388 16 -3 9 -6 40 -6 69 0 41 4 56 18 64 19 11 2738 16
2766 5z m-3545 -58 c7 -8 11 -37 9 -68 l-3 -53 -1220 0 -1220 0 -3 47 c-2 26
2 56 8 68 11 20 14 20 1214 20 1027 0 1205 -2 1215 -14z"/>
</g>
</svg>
